<svg xmlns="http://www.w3.org/2000/svg" viewBox="0 0 512 512" id="bus"><path fill="#787681" d="M489.5 153a7.5 7.5 0 0 1-7.5-7.5V123h-42a7.5 7.5 0 0 1 0-15h42.5a14.517 14.517 0 0 1 14.5 14.5v23a7.5 7.5 0 0 1-7.5 7.5Zm-7-30Z"></path><rect width="30" height="74" x="474.5" y="145.5" fill="#bcd44c" rx="6"></rect><path fill="#aece44" d="M498.5 145.5h-15a6 6 0 0 1 6 6v62a6 6 0 0 1-6 6h15a6 6 0 0 0 6-6v-62a6 6 0 0 0-6-6Z"></path><path fill="#787681" d="M22.5 153a7.5 7.5 0 0 1-7.5-7.5v-23A14.517 14.517 0 0 1 29.5 108H72a7.5 7.5 0 0 1 0 15H30v22.5a7.5 7.5 0 0 1-7.5 7.5Z"></path><rect width="30" height="74" x="7.5" y="145.5" fill="#bcd44c" rx="6" transform="rotate(180 22.5 182.5)"></rect><path fill="#aece44" d="M31.5 145.5h-15a6 6 0 0 1 6 6v62a6 6 0 0 1-6 6h15a6 6 0 0 0 6-6v-62a6 6 0 0 0-6-6Z"></path><rect width="368" height="429" x="72" y="7.5" fill="#bcd44c" rx="30"></rect><path fill="#aece44" d="M410 7.5h-45a30 30 0 0 1 30 30v369a30 30 0 0 1-30 30h45a30 30 0 0 0 30-30v-369a30 30 0 0 0-30-30Z"></path><path fill="#83c9ee" d="M440 85.5v175H72v-175z"></path><path fill="#52bbe9" d="M395 85.5h45v175h-45z"></path><path fill="#a8d9f5" d="M263.5 85.5v175a7.5 7.5 0 0 1-15 0v-175Z"></path><path fill="#aece44" d="M410 320.5H102a30 30 0 0 1-30-30v-30h368v30a30 30 0 0 1-30 30Z"></path><circle cx="382" cy="378.5" r="28" fill="#fddd5a"></circle><path fill="#fed030" d="M382 350.5a28.005 28.005 0 0 0-7.5 1.024 27.999 27.999 0 0 1 0 53.952A28 28 0 1 0 382 350.5Z"></path><circle cx="130" cy="378.5" r="28" fill="#fddd5a"></circle><path fill="#fed030" d="M130 350.5a28.005 28.005 0 0 0-7.5 1.024 27.999 27.999 0 0 1 0 53.952A28 28 0 1 0 130 350.5Z"></path><path fill="#787681" d="M103 436.5h66v53a15 15 0 0 1-15 15h-36a15 15 0 0 1-15-15v-53Z"></path><path fill="#57565c" d="M139 436.5v53a15 15 0 0 1-15 15h30a15 15 0 0 0 15-15v-53Z"></path><path fill="#787681" d="M343 436.5h66v53a15 15 0 0 1-15 15h-36a15 15 0 0 1-15-15v-53Z"></path><path fill="#57565c" d="M379 436.5v53a15 15 0 0 1-15 15h30a15 15 0 0 0 15-15v-53Z"></path><path fill="#787681" d="M504.5 512H7.5a7.5 7.5 0 0 1 0-15h497a7.5 7.5 0 0 1 0 15Z"></path><path fill="#fff" d="M354 54H158a7.5 7.5 0 0 1 0-15h196a7.5 7.5 0 0 1 0 15Z"></path><rect width="136" height="56" x="188" y="350.5" fill="#fff" rx="15"></rect><path fill="#e1e1e3" d="M309 350.5h-45a15 15 0 0 1 15 15v26a15 15 0 0 1-15 15h45a15 15 0 0 0 15-15v-26a15 15 0 0 0-15-15Z"></path><circle cx="395" cy="46.5" r="7.5" fill="#fddd5a"></circle><circle cx="116.473" cy="46.5" r="7.5" fill="#fddd5a"></circle></svg>