<svg xmlns="http://www.w3.org/2000/svg" viewBox="0 0 512 512" id="metro"><path fill="#fff" d="m430.25 193.87-2.83 68.4q-.255 6.105-.91 12.1l-50.85 29.6-4.54 2.64a19.037 19.037 0 0 1-7.05-29.18l18.7-23.61Z"></path><path fill="#2370b5" d="m433.956 104.535-3.706 89.336-2.83 68.398q-.253 6.107-.91 12.1a176.78 176.78 0 0 1-157.898 156.333l-.359.034a123.275 123.275 0 0 1-24.91 0A176.756 176.756 0 0 1 84.58 262.303l-6.537-157.768A92.69 92.69 0 0 1 170.723 8.09h170.554a92.69 92.69 0 0 1 92.679 96.446Z"></path><path fill="#1067ae" d="M341.277 8.09h-45a92.69 92.69 0 0 1 92.679 96.445l-3.706 89.336-2.83 68.398q-.253 6.107-.91 12.1a176.766 176.766 0 0 1-148.126 155.056c3.29.523 6.608.969 9.959 1.31a123.262 123.262 0 0 0 24.91 0l.36-.033A176.78 176.78 0 0 0 426.51 274.37q.657-5.99.91-12.101l2.83-68.398 3.706-89.336A92.69 92.69 0 0 0 341.277 8.09Z"></path><path fill="#83c9ee" d="M341.862 162.851H170.138a33.678 33.678 0 0 1-33.264-28.286l-5.977-37.009a33.66 33.66 0 0 1 33.263-39h183.68a33.66 33.66 0 0 1 33.263 39l-5.977 37.009a33.678 33.678 0 0 1-33.264 28.286Z"></path><path fill="#fff" d="m430.25 193.871-2.83 68.398q-.253 6.107-.91 12.1l-55.392 32.243a19.06 19.06 0 0 1-7.048-29.184Z"></path><path fill="#52bbe9" d="M347.84 58.555h-45a33.66 33.66 0 0 1 33.264 39.001l-5.978 37.009a33.679 33.679 0 0 1-33.264 28.286h45a33.679 33.679 0 0 0 33.264-28.286l5.978-37.009a33.66 33.66 0 0 0-33.264-39Z"></path><rect width="113.434" height="65.045" x="199.283" y="304.156" fill="#fff" rx="29"></rect><path fill="#e1e1e3" d="M283.717 304.156h-30a29 29 0 0 1 29 29v7.045a29 29 0 0 1-29 29h30a29 29 0 0 0 29-29v-7.045a29 29 0 0 0-29-29Z"></path><path fill="#fff" d="m81.804 193.871 2.83 68.398q.253 6.107.91 12.1l55.391 32.243a19.06 19.06 0 0 0 7.048-29.184Z"></path><path fill="#e1e1e3" d="m430.25 193.87-2.83 68.4q-.255 6.105-.91 12.1l-50.85 29.6a175.622 175.622 0 0 0 5.85-29.6q.66-5.985.91-12.1l.35-8.45Z"></path><path fill="#3c3b41" d="M283.717 296.656h-55.434a36.542 36.542 0 0 0-36.5 36.5v7.045a36.542 36.542 0 0 0 36.5 36.5h55.434a36.542 36.542 0 0 0 36.5-36.5v-7.045a36.542 36.542 0 0 0-36.5-36.5Zm21.5 43.545a21.524 21.524 0 0 1-21.5 21.5h-55.434a21.524 21.524 0 0 1-21.5-21.5v-7.045a21.524 21.524 0 0 1 21.5-21.5h55.434a21.524 21.524 0 0 1 21.5 21.5ZM413.655 31.434A99.448 99.448 0 0 0 341.277.59H170.723A100.19 100.19 0 0 0 70.55 104.846l6.537 157.766a183.828 183.828 0 0 0 63.729 131.755l-57.42 106.576a7.5 7.5 0 1 0 13.206 7.114l17.001-31.557h284.792l17.001 31.557a7.5 7.5 0 1 0 13.206-7.114l-57.431-106.598q4.938-4.253 9.587-8.86a184.493 184.493 0 0 0 53.206-110.298c.455-4.15.773-8.392.947-12.608l6.537-157.733.001-.002a99.22 99.22 0 0 0-27.795-73.41ZM92.075 261.992 90.19 216.54l51.913 65.545a11.571 11.571 0 0 1-1.316 15.764l-48.21-28.063q-.34-3.883-.504-7.794ZM390.314 461.5H121.685l31.07-57.668a184.573 184.573 0 0 0 89.828 34.365 130.837 130.837 0 0 0 26.37.006l.417-.04a185.129 185.129 0 0 0 89.857-34.363Zm29.61-199.54a172.04 172.04 0 0 1-.527 7.871l-48.133 28.018a11.57 11.57 0 0 1-1.316-15.764l51.856-65.472Zm6.538-157.736-3.601 86.896-64.67 81.652a26.561 26.561 0 0 0 9.815 40.664 7.5 7.5 0 0 0 6.884-.342l41.763-24.31a169.287 169.287 0 0 1-148.742 134.45l-.417.04a116.074 116.074 0 0 1-23.39 0 169.285 169.285 0 0 1-148.77-134.527l41.828 24.347a7.5 7.5 0 0 0 6.885.342 26.562 26.562 0 0 0 9.814-40.664l-64.727-81.724-3.598-86.821a85.192 85.192 0 0 1 85.186-88.637h170.554a85.192 85.192 0 0 1 85.186 88.634ZM347.84 51.055H164.16a41.16 41.16 0 0 0-40.668 47.697l5.978 37.009a41.012 41.012 0 0 0 40.668 34.59h171.724a41.012 41.012 0 0 0 40.668-34.59l5.978-37.009a41.16 41.16 0 0 0-40.668-47.697Zm25.86 45.306-5.978 37.007a26.072 26.072 0 0 1-25.86 21.984H170.138a26.072 26.072 0 0 1-25.86-21.983l-5.977-37.008a26.159 26.159 0 0 1 25.86-30.306H347.84a26.159 26.159 0 0 1 25.86 30.306Z"></path></svg>