<svg xmlns="http://www.w3.org/2000/svg" enable-background="new 0 0 47.5 47.5" viewBox="0 0 47.5 47.5" id="metro"><defs><clipPath id="a"><path d="M0 38h38V0H0v38Z"></path></clipPath></defs><g clip-path="url(#a)" transform="matrix(1.25 0 0 -1.25 0 47.5)"><path fill="#231f20" d="M0 0c0-9.941-8.059-18-18-18S-36-9.941-36 0s8.059 18 18 18S0 9.941 0 0" transform="translate(37 19)"></path><path fill="#808285" d="M0 0c.7-.412 1.421-.79 2.178-1.106l6.576 14.615H7.335L0 0Z" transform="translate(9.896 3.491)"></path><path fill="#808285" d="M0 0h-1.42l6.577-14.615c.756.316 1.478.694 2.178 1.106L0 0Z" transform="translate(20.77 17)"></path><path fill="#58595b" d="M15 11h-2V9h2v2zM25 11h-2V9h2v2z"></path><path fill="#a7a9ac" d="M0 0a2 2 0 0 0-2-2h-12a2 2 0 0 0-2 2v2a2 2 0 0 0 2 2h12a2 2 0 0 0 2-2V0Z" transform="translate(27 12)"></path><path fill="#d1d3d4" d="M0 0h-12.727a3.636 3.636 0 0 1-3.636-3.636V-17a2 2 0 0 1 2-2h16a2 2 0 0 1 2 2v13.364A3.636 3.636 0 0 1 0 0" transform="translate(25.363 31)"></path><path fill="#dd2e44" d="M0 0v-4a2 2 0 0 1 2-2h16a2 2 0 0 1 2 2v8H0V0Z" transform="translate(9 18)"></path><path fill="#58595b" d="M0 0a2 2 0 0 0-2-2h-12a2 2 0 0 0-2 2v7a2 2 0 0 0 2 2h12a2 2 0 0 0 2-2V0Z" transform="translate(27 20)"></path><path fill="#55acee" d="M0 0a1 1 0 0 0-1-1h-10a1 1 0 0 0-1 1v5a1 1 0 0 0 1 1h10a1 1 0 0 0 1-1V0Z" transform="translate(25 21)"></path><path fill="#ffd983" d="M15 14h-4v2h4v-2zM27 14h-4v2h4v-2z"></path><path fill="#808285" d="M0 0a1 1 0 0 0-1-1h-2a1 1 0 0 0 0 2h2a1 1 0 0 0 1-1" transform="translate(21 28)"></path></g></svg>