<svg xmlns="http://www.w3.org/2000/svg" viewBox="0 0 512 512" id="metro"><path fill="#787681" d="M422.007 512.001a7.499 7.499 0 0 1-6.61-3.943l-70.088-130.09a7.5 7.5 0 0 1 13.205-7.114l70.089 130.088a7.502 7.502 0 0 1-6.596 11.06zm-332.014 0a7.502 7.502 0 0 1-6.596-11.059l70.09-130.088a7.5 7.5 0 0 1 13.204 7.115L96.603 508.058a7.499 7.499 0 0 1-6.61 3.943z"></path><path fill="#fff" d="m430.25 193.87-2.83 68.4q-.255 6.105-.91 12.1l-50.85 29.6-4.54 2.64a19.037 19.037 0 0 1-7.05-29.18l18.7-23.61Z"></path><path fill="#2370b5" d="m433.956 104.535-3.706 89.336-2.83 68.398q-.253 6.107-.91 12.1a176.78 176.78 0 0 1-157.898 156.333l-.359.034a123.275 123.275 0 0 1-24.91 0A176.756 176.756 0 0 1 84.58 262.303l-6.537-157.768A92.69 92.69 0 0 1 170.723 8.09h170.554a92.69 92.69 0 0 1 92.679 96.446Z"></path><path fill="#1067ae" d="M341.277 8.09h-45a92.69 92.69 0 0 1 92.679 96.445l-3.706 89.336-2.83 68.398q-.253 6.107-.91 12.1a176.766 176.766 0 0 1-148.126 155.056c3.29.523 6.608.969 9.959 1.31a123.262 123.262 0 0 0 24.91 0l.36-.033A176.78 176.78 0 0 0 426.51 274.37q.657-5.99.91-12.101l2.83-68.398 3.706-89.336A92.69 92.69 0 0 0 341.277 8.09Z"></path><path fill="#83c9ee" d="M341.862 162.851H170.138a33.678 33.678 0 0 1-33.264-28.286l-5.977-37.009a33.66 33.66 0 0 1 33.263-39h183.68a33.66 33.66 0 0 1 33.263 39l-5.977 37.009a33.678 33.678 0 0 1-33.264 28.286Z"></path><path fill="#fff" d="m430.25 193.871-2.83 68.398q-.253 6.107-.91 12.1l-55.392 32.243a19.06 19.06 0 0 1-7.048-29.184Z"></path><path fill="#52bbe9" d="M347.84 58.555h-45a33.66 33.66 0 0 1 33.264 39.001l-5.978 37.009a33.679 33.679 0 0 1-33.264 28.286h45a33.679 33.679 0 0 0 33.264-28.286l5.978-37.009a33.66 33.66 0 0 0-33.264-39Z"></path><rect width="113.434" height="65.045" x="199.283" y="304.156" fill="#fff" rx="29"></rect><path fill="#e1e1e3" d="M283.717 304.156h-30a29 29 0 0 1 29 29v7.045a29 29 0 0 1-29 29h30a29 29 0 0 0 29-29v-7.045a29 29 0 0 0-29-29Z"></path><path fill="#fff" d="m81.804 193.871 2.83 68.398q.253 6.107.91 12.1l55.391 32.243a19.06 19.06 0 0 0 7.048-29.184Z"></path><path fill="#e1e1e3" d="m430.25 193.87-2.83 68.4q-.255 6.105-.91 12.1l-50.85 29.6a175.622 175.622 0 0 0 5.85-29.6q.66-5.985.91-12.1l.35-8.45Z"></path><path fill="#787681" d="M399.5 476.5h-289a7.5 7.5 0 0 1 0-15h289a7.5 7.5 0 0 1 0 15Z"></path></svg>